<mxfile host="app.diagrams.net" modified="2023-10-09T17:45:00.275Z" agent="Mozilla/5.0 (Windows NT 10.0; Win64; x64) AppleWebKit/537.36 (KHTML, like Gecko) Chrome/116.0.0.0 Safari/537.36 OPR/102.0.0.0" etag="rOixmwfNtMCWWZtxJ7Fq" version="22.0.4" type="device">
  <diagram name="Страница — 1" id="oxzbA5n8rJRtIyU1qTe0">
    <mxGraphModel dx="1438" dy="834" grid="1" gridSize="10" guides="1" tooltips="1" connect="1" arrows="1" fold="1" page="1" pageScale="1" pageWidth="1169" pageHeight="1654" math="0" shadow="0">
      <root>
        <mxCell id="0" />
        <mxCell id="1" parent="0" />
        <mxCell id="ISpdHRzA0BJsA2ZzyDUn-39" value="" style="rounded=0;whiteSpace=wrap;html=1;" parent="1" vertex="1">
          <mxGeometry x="80" y="110" width="300" height="389" as="geometry" />
        </mxCell>
        <mxCell id="ISpdHRzA0BJsA2ZzyDUn-3" value="&lt;font style=&quot;font-size: 16px;&quot;&gt;П1&lt;/font&gt;" style="text;html=1;strokeColor=none;fillColor=none;align=center;verticalAlign=middle;whiteSpace=wrap;rounded=0;" parent="1" vertex="1">
          <mxGeometry x="80" y="109" width="60" height="30" as="geometry" />
        </mxCell>
        <mxCell id="ISpdHRzA0BJsA2ZzyDUn-4" value="ПК-1&lt;br&gt;Картан" style="whiteSpace=wrap;html=1;aspect=fixed;" parent="1" vertex="1">
          <mxGeometry x="170" y="139" width="50" height="50" as="geometry" />
        </mxCell>
        <mxCell id="ISpdHRzA0BJsA2ZzyDUn-5" value="" style="endArrow=classic;startArrow=classic;html=1;rounded=0;exitX=1;exitY=0.25;exitDx=0;exitDy=0;entryX=0;entryY=0.5;entryDx=0;entryDy=0;" parent="1" source="ISpdHRzA0BJsA2ZzyDUn-8" target="ISpdHRzA0BJsA2ZzyDUn-4" edge="1">
          <mxGeometry width="50" height="50" relative="1" as="geometry">
            <mxPoint x="140" y="164" as="sourcePoint" />
            <mxPoint x="420" y="299" as="targetPoint" />
          </mxGeometry>
        </mxCell>
        <mxCell id="ISpdHRzA0BJsA2ZzyDUn-8" value="Epson&lt;br&gt;CX-400" style="whiteSpace=wrap;html=1;aspect=fixed;" parent="1" vertex="1">
          <mxGeometry x="90" y="168.5" width="50" height="50" as="geometry" />
        </mxCell>
        <mxCell id="ISpdHRzA0BJsA2ZzyDUn-9" value="ПК-2&lt;br&gt;Картан" style="whiteSpace=wrap;html=1;aspect=fixed;" parent="1" vertex="1">
          <mxGeometry x="170" y="199" width="50" height="50" as="geometry" />
        </mxCell>
        <mxCell id="ISpdHRzA0BJsA2ZzyDUn-10" value="" style="endArrow=classic;startArrow=classic;html=1;rounded=0;exitX=1;exitY=0.75;exitDx=0;exitDy=0;entryX=0;entryY=0.5;entryDx=0;entryDy=0;" parent="1" source="ISpdHRzA0BJsA2ZzyDUn-8" target="ISpdHRzA0BJsA2ZzyDUn-9" edge="1">
          <mxGeometry width="50" height="50" relative="1" as="geometry">
            <mxPoint x="370" y="409" as="sourcePoint" />
            <mxPoint x="420" y="359" as="targetPoint" />
          </mxGeometry>
        </mxCell>
        <mxCell id="ISpdHRzA0BJsA2ZzyDUn-12" value="ПК-3&lt;br&gt;Картан" style="whiteSpace=wrap;html=1;aspect=fixed;" parent="1" vertex="1">
          <mxGeometry x="170" y="259" width="50" height="50" as="geometry" />
        </mxCell>
        <mxCell id="ISpdHRzA0BJsA2ZzyDUn-13" value="" style="endArrow=classic;startArrow=classic;html=1;rounded=0;exitX=1;exitY=0.25;exitDx=0;exitDy=0;entryX=0;entryY=0.5;entryDx=0;entryDy=0;" parent="1" source="ISpdHRzA0BJsA2ZzyDUn-14" target="ISpdHRzA0BJsA2ZzyDUn-12" edge="1">
          <mxGeometry width="50" height="50" relative="1" as="geometry">
            <mxPoint x="140" y="284" as="sourcePoint" />
            <mxPoint x="420" y="419" as="targetPoint" />
          </mxGeometry>
        </mxCell>
        <mxCell id="ISpdHRzA0BJsA2ZzyDUn-14" value="Epson&lt;br&gt;CX-400" style="whiteSpace=wrap;html=1;aspect=fixed;" parent="1" vertex="1">
          <mxGeometry x="90" y="289" width="50" height="50" as="geometry" />
        </mxCell>
        <mxCell id="ISpdHRzA0BJsA2ZzyDUn-15" value="ПК-4&lt;br&gt;Картан" style="whiteSpace=wrap;html=1;aspect=fixed;" parent="1" vertex="1">
          <mxGeometry x="170" y="319" width="50" height="50" as="geometry" />
        </mxCell>
        <mxCell id="ISpdHRzA0BJsA2ZzyDUn-16" value="" style="endArrow=classic;startArrow=classic;html=1;rounded=0;exitX=1;exitY=0.75;exitDx=0;exitDy=0;entryX=0;entryY=0.5;entryDx=0;entryDy=0;" parent="1" source="ISpdHRzA0BJsA2ZzyDUn-14" target="ISpdHRzA0BJsA2ZzyDUn-15" edge="1">
          <mxGeometry width="50" height="50" relative="1" as="geometry">
            <mxPoint x="370" y="529" as="sourcePoint" />
            <mxPoint x="420" y="479" as="targetPoint" />
          </mxGeometry>
        </mxCell>
        <mxCell id="ISpdHRzA0BJsA2ZzyDUn-18" value="ПК-7&lt;br&gt;Картан" style="whiteSpace=wrap;html=1;aspect=fixed;" parent="1" vertex="1">
          <mxGeometry x="320" y="139" width="50" height="50" as="geometry" />
        </mxCell>
        <mxCell id="ISpdHRzA0BJsA2ZzyDUn-19" value="" style="endArrow=classic;startArrow=classic;html=1;rounded=0;exitX=1;exitY=0.25;exitDx=0;exitDy=0;entryX=0;entryY=0.5;entryDx=0;entryDy=0;" parent="1" source="ISpdHRzA0BJsA2ZzyDUn-20" target="ISpdHRzA0BJsA2ZzyDUn-18" edge="1">
          <mxGeometry width="50" height="50" relative="1" as="geometry">
            <mxPoint x="290" y="164" as="sourcePoint" />
            <mxPoint x="570" y="299" as="targetPoint" />
          </mxGeometry>
        </mxCell>
        <mxCell id="ISpdHRzA0BJsA2ZzyDUn-20" value="Epson&lt;br&gt;CX-400" style="whiteSpace=wrap;html=1;aspect=fixed;" parent="1" vertex="1">
          <mxGeometry x="240" y="168.5" width="50" height="50" as="geometry" />
        </mxCell>
        <mxCell id="ISpdHRzA0BJsA2ZzyDUn-21" value="ПК-8&lt;br&gt;Картан" style="whiteSpace=wrap;html=1;aspect=fixed;" parent="1" vertex="1">
          <mxGeometry x="320" y="199" width="50" height="50" as="geometry" />
        </mxCell>
        <mxCell id="ISpdHRzA0BJsA2ZzyDUn-22" value="" style="endArrow=classic;startArrow=classic;html=1;rounded=0;exitX=1;exitY=0.75;exitDx=0;exitDy=0;entryX=0;entryY=0.5;entryDx=0;entryDy=0;" parent="1" source="ISpdHRzA0BJsA2ZzyDUn-20" target="ISpdHRzA0BJsA2ZzyDUn-21" edge="1">
          <mxGeometry width="50" height="50" relative="1" as="geometry">
            <mxPoint x="520" y="409" as="sourcePoint" />
            <mxPoint x="570" y="359" as="targetPoint" />
          </mxGeometry>
        </mxCell>
        <mxCell id="ISpdHRzA0BJsA2ZzyDUn-24" value="ПК-9&lt;br&gt;Картан" style="whiteSpace=wrap;html=1;aspect=fixed;" parent="1" vertex="1">
          <mxGeometry x="320" y="259" width="50" height="50" as="geometry" />
        </mxCell>
        <mxCell id="ISpdHRzA0BJsA2ZzyDUn-25" value="" style="endArrow=classic;startArrow=classic;html=1;rounded=0;exitX=1;exitY=0.25;exitDx=0;exitDy=0;entryX=0;entryY=0.5;entryDx=0;entryDy=0;" parent="1" source="ISpdHRzA0BJsA2ZzyDUn-29" target="ISpdHRzA0BJsA2ZzyDUn-24" edge="1">
          <mxGeometry width="50" height="50" relative="1" as="geometry">
            <mxPoint x="290" y="284" as="sourcePoint" />
            <mxPoint x="570" y="419" as="targetPoint" />
          </mxGeometry>
        </mxCell>
        <mxCell id="ISpdHRzA0BJsA2ZzyDUn-29" value="Epson&lt;br&gt;CX-400" style="whiteSpace=wrap;html=1;aspect=fixed;" parent="1" vertex="1">
          <mxGeometry x="240" y="289" width="50" height="50" as="geometry" />
        </mxCell>
        <mxCell id="ISpdHRzA0BJsA2ZzyDUn-30" value="ПК-10&lt;br&gt;Картан" style="whiteSpace=wrap;html=1;aspect=fixed;" parent="1" vertex="1">
          <mxGeometry x="320" y="319" width="50" height="50" as="geometry" />
        </mxCell>
        <mxCell id="ISpdHRzA0BJsA2ZzyDUn-31" value="" style="endArrow=classic;startArrow=classic;html=1;rounded=0;exitX=1;exitY=0.75;exitDx=0;exitDy=0;entryX=0;entryY=0.5;entryDx=0;entryDy=0;" parent="1" source="ISpdHRzA0BJsA2ZzyDUn-29" target="ISpdHRzA0BJsA2ZzyDUn-30" edge="1">
          <mxGeometry width="50" height="50" relative="1" as="geometry">
            <mxPoint x="520" y="529" as="sourcePoint" />
            <mxPoint x="570" y="479" as="targetPoint" />
          </mxGeometry>
        </mxCell>
        <mxCell id="ISpdHRzA0BJsA2ZzyDUn-33" value="ПК-5&lt;br&gt;Картан" style="whiteSpace=wrap;html=1;aspect=fixed;" parent="1" vertex="1">
          <mxGeometry x="170" y="379" width="50" height="50" as="geometry" />
        </mxCell>
        <mxCell id="ISpdHRzA0BJsA2ZzyDUn-34" value="" style="endArrow=classic;startArrow=classic;html=1;rounded=0;exitX=1;exitY=0.25;exitDx=0;exitDy=0;entryX=0;entryY=0.5;entryDx=0;entryDy=0;" parent="1" source="ISpdHRzA0BJsA2ZzyDUn-41" target="ISpdHRzA0BJsA2ZzyDUn-33" edge="1">
          <mxGeometry width="50" height="50" relative="1" as="geometry">
            <mxPoint x="140" y="404" as="sourcePoint" />
            <mxPoint x="420" y="539" as="targetPoint" />
          </mxGeometry>
        </mxCell>
        <mxCell id="ISpdHRzA0BJsA2ZzyDUn-36" value="ПК-11&lt;br&gt;Картан" style="whiteSpace=wrap;html=1;aspect=fixed;" parent="1" vertex="1">
          <mxGeometry x="320" y="379" width="50" height="50" as="geometry" />
        </mxCell>
        <mxCell id="ISpdHRzA0BJsA2ZzyDUn-37" value="" style="endArrow=classic;startArrow=classic;html=1;rounded=0;exitX=1;exitY=0.5;exitDx=0;exitDy=0;entryX=0;entryY=0.5;entryDx=0;entryDy=0;" parent="1" source="2MC6C-4q-mQpbVFWS4ky-1" target="ISpdHRzA0BJsA2ZzyDUn-36" edge="1">
          <mxGeometry width="50" height="50" relative="1" as="geometry">
            <mxPoint x="290" y="404" as="sourcePoint" />
            <mxPoint x="570" y="539" as="targetPoint" />
          </mxGeometry>
        </mxCell>
        <mxCell id="ISpdHRzA0BJsA2ZzyDUn-41" value="Epson&lt;br&gt;CX-400" style="whiteSpace=wrap;html=1;aspect=fixed;" parent="1" vertex="1">
          <mxGeometry x="85" y="409" width="50" height="50" as="geometry" />
        </mxCell>
        <mxCell id="ISpdHRzA0BJsA2ZzyDUn-42" value="ПК-6&lt;br&gt;Картан" style="whiteSpace=wrap;html=1;aspect=fixed;" parent="1" vertex="1">
          <mxGeometry x="170" y="438.5" width="50" height="50" as="geometry" />
        </mxCell>
        <mxCell id="ISpdHRzA0BJsA2ZzyDUn-43" value="" style="endArrow=classic;startArrow=classic;html=1;rounded=0;exitX=1;exitY=0.75;exitDx=0;exitDy=0;entryX=0;entryY=0.5;entryDx=0;entryDy=0;" parent="1" source="ISpdHRzA0BJsA2ZzyDUn-41" target="ISpdHRzA0BJsA2ZzyDUn-42" edge="1">
          <mxGeometry width="50" height="50" relative="1" as="geometry">
            <mxPoint x="445" y="659" as="sourcePoint" />
            <mxPoint x="495" y="609" as="targetPoint" />
          </mxGeometry>
        </mxCell>
        <mxCell id="ISpdHRzA0BJsA2ZzyDUn-44" value="" style="rounded=0;whiteSpace=wrap;html=1;" parent="1" vertex="1">
          <mxGeometry x="80" y="524.87" width="150" height="510" as="geometry" />
        </mxCell>
        <mxCell id="ISpdHRzA0BJsA2ZzyDUn-46" value="&lt;font style=&quot;font-size: 16px;&quot;&gt;П3&lt;/font&gt;" style="text;html=1;strokeColor=none;fillColor=none;align=center;verticalAlign=middle;whiteSpace=wrap;rounded=0;" parent="1" vertex="1">
          <mxGeometry x="80" y="523.87" width="60" height="30" as="geometry" />
        </mxCell>
        <mxCell id="ISpdHRzA0BJsA2ZzyDUn-47" value="ПК-19&lt;br&gt;Картан" style="whiteSpace=wrap;html=1;aspect=fixed;" parent="1" vertex="1">
          <mxGeometry x="170" y="554.87" width="50" height="50" as="geometry" />
        </mxCell>
        <mxCell id="ISpdHRzA0BJsA2ZzyDUn-48" value="" style="endArrow=classic;startArrow=classic;html=1;rounded=0;exitX=1;exitY=0.25;exitDx=0;exitDy=0;entryX=0;entryY=0.5;entryDx=0;entryDy=0;" parent="1" source="ISpdHRzA0BJsA2ZzyDUn-49" target="ISpdHRzA0BJsA2ZzyDUn-47" edge="1">
          <mxGeometry width="50" height="50" relative="1" as="geometry">
            <mxPoint x="140" y="579.87" as="sourcePoint" />
            <mxPoint x="420" y="714.87" as="targetPoint" />
          </mxGeometry>
        </mxCell>
        <mxCell id="ISpdHRzA0BJsA2ZzyDUn-49" value="Sharp&lt;br&gt;FX-125" style="whiteSpace=wrap;html=1;aspect=fixed;" parent="1" vertex="1">
          <mxGeometry x="90" y="584.87" width="50" height="50" as="geometry" />
        </mxCell>
        <mxCell id="ISpdHRzA0BJsA2ZzyDUn-50" value="ПК-20&lt;br&gt;Картан" style="whiteSpace=wrap;html=1;aspect=fixed;" parent="1" vertex="1">
          <mxGeometry x="170" y="614.87" width="50" height="50" as="geometry" />
        </mxCell>
        <mxCell id="ISpdHRzA0BJsA2ZzyDUn-51" value="" style="endArrow=classic;startArrow=classic;html=1;rounded=0;exitX=1;exitY=0.75;exitDx=0;exitDy=0;entryX=0;entryY=0.5;entryDx=0;entryDy=0;" parent="1" source="ISpdHRzA0BJsA2ZzyDUn-49" target="ISpdHRzA0BJsA2ZzyDUn-50" edge="1">
          <mxGeometry width="50" height="50" relative="1" as="geometry">
            <mxPoint x="370" y="824.87" as="sourcePoint" />
            <mxPoint x="420" y="774.87" as="targetPoint" />
          </mxGeometry>
        </mxCell>
        <mxCell id="ISpdHRzA0BJsA2ZzyDUn-53" value="ПК-21&lt;br&gt;Картан" style="whiteSpace=wrap;html=1;aspect=fixed;" parent="1" vertex="1">
          <mxGeometry x="170" y="674.87" width="50" height="50" as="geometry" />
        </mxCell>
        <mxCell id="ISpdHRzA0BJsA2ZzyDUn-54" value="" style="endArrow=classic;startArrow=classic;html=1;rounded=0;exitX=1;exitY=0.25;exitDx=0;exitDy=0;entryX=0;entryY=0.5;entryDx=0;entryDy=0;" parent="1" source="ISpdHRzA0BJsA2ZzyDUn-55" target="ISpdHRzA0BJsA2ZzyDUn-53" edge="1">
          <mxGeometry width="50" height="50" relative="1" as="geometry">
            <mxPoint x="140" y="699.87" as="sourcePoint" />
            <mxPoint x="420" y="834.87" as="targetPoint" />
          </mxGeometry>
        </mxCell>
        <mxCell id="ISpdHRzA0BJsA2ZzyDUn-55" value="Sharp&lt;br style=&quot;border-color: var(--border-color);&quot;&gt;FX-125" style="whiteSpace=wrap;html=1;aspect=fixed;" parent="1" vertex="1">
          <mxGeometry x="90" y="704.87" width="50" height="50" as="geometry" />
        </mxCell>
        <mxCell id="ISpdHRzA0BJsA2ZzyDUn-56" value="ПК-22&lt;br&gt;Картан" style="whiteSpace=wrap;html=1;aspect=fixed;" parent="1" vertex="1">
          <mxGeometry x="170" y="734.87" width="50" height="50" as="geometry" />
        </mxCell>
        <mxCell id="ISpdHRzA0BJsA2ZzyDUn-57" value="" style="endArrow=classic;startArrow=classic;html=1;rounded=0;exitX=1;exitY=0.75;exitDx=0;exitDy=0;entryX=0;entryY=0.5;entryDx=0;entryDy=0;" parent="1" source="ISpdHRzA0BJsA2ZzyDUn-55" target="ISpdHRzA0BJsA2ZzyDUn-56" edge="1">
          <mxGeometry width="50" height="50" relative="1" as="geometry">
            <mxPoint x="370" y="944.87" as="sourcePoint" />
            <mxPoint x="420" y="894.87" as="targetPoint" />
          </mxGeometry>
        </mxCell>
        <mxCell id="ISpdHRzA0BJsA2ZzyDUn-58" value="Sharp&lt;br style=&quot;border-color: var(--border-color);&quot;&gt;FX-125" style="whiteSpace=wrap;html=1;aspect=fixed;" parent="1" vertex="1">
          <mxGeometry x="90" y="824.87" width="50" height="50" as="geometry" />
        </mxCell>
        <mxCell id="ISpdHRzA0BJsA2ZzyDUn-59" value="ПК-24&lt;br&gt;Картан" style="whiteSpace=wrap;html=1;aspect=fixed;" parent="1" vertex="1">
          <mxGeometry x="170" y="854.87" width="50" height="50" as="geometry" />
        </mxCell>
        <mxCell id="ISpdHRzA0BJsA2ZzyDUn-60" value="" style="endArrow=classic;startArrow=classic;html=1;rounded=0;exitX=1;exitY=0.75;exitDx=0;exitDy=0;entryX=0;entryY=0.5;entryDx=0;entryDy=0;" parent="1" source="ISpdHRzA0BJsA2ZzyDUn-58" target="ISpdHRzA0BJsA2ZzyDUn-59" edge="1">
          <mxGeometry width="50" height="50" relative="1" as="geometry">
            <mxPoint x="370" y="1064.87" as="sourcePoint" />
            <mxPoint x="420" y="1014.87" as="targetPoint" />
          </mxGeometry>
        </mxCell>
        <mxCell id="ISpdHRzA0BJsA2ZzyDUn-62" value="ПК-25&lt;br&gt;Картан" style="whiteSpace=wrap;html=1;aspect=fixed;" parent="1" vertex="1">
          <mxGeometry x="170" y="914.87" width="50" height="50" as="geometry" />
        </mxCell>
        <mxCell id="ISpdHRzA0BJsA2ZzyDUn-63" value="" style="endArrow=classic;startArrow=classic;html=1;rounded=0;exitX=1;exitY=0.25;exitDx=0;exitDy=0;entryX=0;entryY=0.5;entryDx=0;entryDy=0;" parent="1" source="ISpdHRzA0BJsA2ZzyDUn-64" target="ISpdHRzA0BJsA2ZzyDUn-62" edge="1">
          <mxGeometry width="50" height="50" relative="1" as="geometry">
            <mxPoint x="140" y="939.87" as="sourcePoint" />
            <mxPoint x="420" y="1074.87" as="targetPoint" />
          </mxGeometry>
        </mxCell>
        <mxCell id="ISpdHRzA0BJsA2ZzyDUn-64" value="Sharp&lt;br style=&quot;border-color: var(--border-color);&quot;&gt;FX-125" style="whiteSpace=wrap;html=1;aspect=fixed;" parent="1" vertex="1">
          <mxGeometry x="90" y="944.87" width="50" height="50" as="geometry" />
        </mxCell>
        <mxCell id="ISpdHRzA0BJsA2ZzyDUn-65" value="ПК-26&lt;br&gt;Картан" style="whiteSpace=wrap;html=1;aspect=fixed;" parent="1" vertex="1">
          <mxGeometry x="170" y="974.87" width="50" height="50" as="geometry" />
        </mxCell>
        <mxCell id="ISpdHRzA0BJsA2ZzyDUn-66" value="" style="endArrow=classic;startArrow=classic;html=1;rounded=0;exitX=1;exitY=0.75;exitDx=0;exitDy=0;entryX=0;entryY=0.5;entryDx=0;entryDy=0;" parent="1" source="ISpdHRzA0BJsA2ZzyDUn-64" target="ISpdHRzA0BJsA2ZzyDUn-65" edge="1">
          <mxGeometry width="50" height="50" relative="1" as="geometry">
            <mxPoint x="370" y="1184.87" as="sourcePoint" />
            <mxPoint x="420" y="1134.87" as="targetPoint" />
          </mxGeometry>
        </mxCell>
        <mxCell id="ISpdHRzA0BJsA2ZzyDUn-71" value="ПК-23&lt;br&gt;Картан" style="whiteSpace=wrap;html=1;aspect=fixed;" parent="1" vertex="1">
          <mxGeometry x="170" y="794.87" width="50" height="50" as="geometry" />
        </mxCell>
        <mxCell id="ISpdHRzA0BJsA2ZzyDUn-72" value="" style="endArrow=classic;startArrow=classic;html=1;rounded=0;exitX=1;exitY=0.25;exitDx=0;exitDy=0;entryX=0;entryY=0.5;entryDx=0;entryDy=0;" parent="1" source="ISpdHRzA0BJsA2ZzyDUn-58" target="ISpdHRzA0BJsA2ZzyDUn-71" edge="1">
          <mxGeometry width="50" height="50" relative="1" as="geometry">
            <mxPoint x="140" y="819.87" as="sourcePoint" />
            <mxPoint x="420" y="954.87" as="targetPoint" />
          </mxGeometry>
        </mxCell>
        <mxCell id="ISpdHRzA0BJsA2ZzyDUn-79" style="edgeStyle=orthogonalEdgeStyle;rounded=0;orthogonalLoop=1;jettySize=auto;html=1;exitX=0.5;exitY=1;exitDx=0;exitDy=0;" parent="1" source="ISpdHRzA0BJsA2ZzyDUn-44" target="ISpdHRzA0BJsA2ZzyDUn-44" edge="1">
          <mxGeometry relative="1" as="geometry" />
        </mxCell>
        <mxCell id="ISpdHRzA0BJsA2ZzyDUn-110" value="" style="rounded=0;whiteSpace=wrap;html=1;" parent="1" vertex="1">
          <mxGeometry x="280" y="684.66" width="150" height="225.34" as="geometry" />
        </mxCell>
        <mxCell id="ISpdHRzA0BJsA2ZzyDUn-112" value="&lt;span style=&quot;font-size: 16px;&quot;&gt;ЭП1&lt;/span&gt;" style="text;html=1;strokeColor=none;fillColor=none;align=center;verticalAlign=middle;whiteSpace=wrap;rounded=0;" parent="1" vertex="1">
          <mxGeometry x="280" y="684.66" width="60" height="30" as="geometry" />
        </mxCell>
        <mxCell id="ISpdHRzA0BJsA2ZzyDUn-113" value="ПК-43&lt;br&gt;Картан" style="whiteSpace=wrap;html=1;aspect=fixed;" parent="1" vertex="1">
          <mxGeometry x="370" y="724.66" width="50" height="50" as="geometry" />
        </mxCell>
        <mxCell id="ISpdHRzA0BJsA2ZzyDUn-114" value="" style="endArrow=classic;startArrow=classic;html=1;rounded=0;exitX=1;exitY=0.25;exitDx=0;exitDy=0;entryX=0;entryY=0.5;entryDx=0;entryDy=0;" parent="1" source="ISpdHRzA0BJsA2ZzyDUn-115" target="ISpdHRzA0BJsA2ZzyDUn-113" edge="1">
          <mxGeometry width="50" height="50" relative="1" as="geometry">
            <mxPoint x="340" y="749.66" as="sourcePoint" />
            <mxPoint x="620" y="884.66" as="targetPoint" />
          </mxGeometry>
        </mxCell>
        <mxCell id="ISpdHRzA0BJsA2ZzyDUn-115" value="Epson&lt;br&gt;CX-400" style="whiteSpace=wrap;html=1;aspect=fixed;" parent="1" vertex="1">
          <mxGeometry x="290" y="754.66" width="50" height="50" as="geometry" />
        </mxCell>
        <mxCell id="ISpdHRzA0BJsA2ZzyDUn-116" value="ПК-44&lt;br&gt;Картан" style="whiteSpace=wrap;html=1;aspect=fixed;" parent="1" vertex="1">
          <mxGeometry x="370" y="784.66" width="50" height="50" as="geometry" />
        </mxCell>
        <mxCell id="ISpdHRzA0BJsA2ZzyDUn-117" value="" style="endArrow=classic;startArrow=classic;html=1;rounded=0;exitX=1;exitY=0.75;exitDx=0;exitDy=0;entryX=0;entryY=0.5;entryDx=0;entryDy=0;" parent="1" source="ISpdHRzA0BJsA2ZzyDUn-115" target="ISpdHRzA0BJsA2ZzyDUn-116" edge="1">
          <mxGeometry width="50" height="50" relative="1" as="geometry">
            <mxPoint x="570" y="994.66" as="sourcePoint" />
            <mxPoint x="620" y="944.66" as="targetPoint" />
          </mxGeometry>
        </mxCell>
        <mxCell id="ISpdHRzA0BJsA2ZzyDUn-118" value="Epson&lt;br&gt;CX-400" style="whiteSpace=wrap;html=1;aspect=fixed;" parent="1" vertex="1">
          <mxGeometry x="290" y="844.66" width="50" height="50" as="geometry" />
        </mxCell>
        <mxCell id="ISpdHRzA0BJsA2ZzyDUn-119" value="ПК-45&lt;br&gt;Картан" style="whiteSpace=wrap;html=1;aspect=fixed;" parent="1" vertex="1">
          <mxGeometry x="370" y="844.66" width="50" height="50" as="geometry" />
        </mxCell>
        <mxCell id="ISpdHRzA0BJsA2ZzyDUn-120" value="" style="endArrow=classic;startArrow=classic;html=1;rounded=0;exitX=1;exitY=0.5;exitDx=0;exitDy=0;entryX=0;entryY=0.5;entryDx=0;entryDy=0;" parent="1" source="ISpdHRzA0BJsA2ZzyDUn-118" target="ISpdHRzA0BJsA2ZzyDUn-119" edge="1">
          <mxGeometry width="50" height="50" relative="1" as="geometry">
            <mxPoint x="570" y="1054.66" as="sourcePoint" />
            <mxPoint x="620" y="1004.66" as="targetPoint" />
          </mxGeometry>
        </mxCell>
        <mxCell id="ISpdHRzA0BJsA2ZzyDUn-140" value="СС1&lt;br&gt;Сервер&lt;br&gt;ПЭВМ&amp;nbsp;&lt;br&gt;Картан" style="rounded=0;whiteSpace=wrap;html=1;" parent="1" vertex="1">
          <mxGeometry x="390" y="520" width="70" height="90" as="geometry" />
        </mxCell>
        <mxCell id="ISpdHRzA0BJsA2ZzyDUn-141" value="" style="endArrow=classic;startArrow=classic;html=1;rounded=0;exitX=1;exitY=1;exitDx=0;exitDy=0;entryX=0.25;entryY=0;entryDx=0;entryDy=0;" parent="1" source="ISpdHRzA0BJsA2ZzyDUn-39" target="ISpdHRzA0BJsA2ZzyDUn-140" edge="1">
          <mxGeometry width="50" height="50" relative="1" as="geometry">
            <mxPoint x="440" y="650" as="sourcePoint" />
            <mxPoint x="490" y="600" as="targetPoint" />
          </mxGeometry>
        </mxCell>
        <mxCell id="ISpdHRzA0BJsA2ZzyDUn-142" value="" style="endArrow=classic;startArrow=classic;html=1;rounded=0;exitX=0;exitY=0.75;exitDx=0;exitDy=0;entryX=1.006;entryY=0.127;entryDx=0;entryDy=0;entryPerimeter=0;" parent="1" source="ISpdHRzA0BJsA2ZzyDUn-140" target="ISpdHRzA0BJsA2ZzyDUn-44" edge="1">
          <mxGeometry width="50" height="50" relative="1" as="geometry">
            <mxPoint x="440" y="650" as="sourcePoint" />
            <mxPoint x="490" y="600" as="targetPoint" />
          </mxGeometry>
        </mxCell>
        <mxCell id="ISpdHRzA0BJsA2ZzyDUn-143" value="" style="endArrow=classic;startArrow=classic;html=1;rounded=0;entryX=1;entryY=0.25;entryDx=0;entryDy=0;exitX=0;exitY=1;exitDx=0;exitDy=0;" parent="1" source="2MC6C-4q-mQpbVFWS4ky-4" target="ISpdHRzA0BJsA2ZzyDUn-140" edge="1">
          <mxGeometry width="50" height="50" relative="1" as="geometry">
            <mxPoint x="800" y="669.4099999999999" as="sourcePoint" />
            <mxPoint x="490" y="600" as="targetPoint" />
          </mxGeometry>
        </mxCell>
        <mxCell id="ISpdHRzA0BJsA2ZzyDUn-144" value="" style="endArrow=classic;startArrow=classic;html=1;rounded=0;exitX=0.5;exitY=0;exitDx=0;exitDy=0;entryX=0.5;entryY=1;entryDx=0;entryDy=0;" parent="1" source="ISpdHRzA0BJsA2ZzyDUn-110" target="ISpdHRzA0BJsA2ZzyDUn-140" edge="1">
          <mxGeometry width="50" height="50" relative="1" as="geometry">
            <mxPoint x="520" y="830" as="sourcePoint" />
            <mxPoint x="570" y="780" as="targetPoint" />
          </mxGeometry>
        </mxCell>
        <mxCell id="ISpdHRzA0BJsA2ZzyDUn-145" value="" style="rounded=0;whiteSpace=wrap;html=1;" parent="1" vertex="1">
          <mxGeometry x="400" y="240.5" width="430" height="180" as="geometry" />
        </mxCell>
        <mxCell id="ISpdHRzA0BJsA2ZzyDUn-146" value="Epson&lt;br&gt;CX-400" style="whiteSpace=wrap;html=1;aspect=fixed;" parent="1" vertex="1">
          <mxGeometry x="440" y="270.5" width="50" height="50" as="geometry" />
        </mxCell>
        <mxCell id="ISpdHRzA0BJsA2ZzyDUn-147" value="&lt;font style=&quot;font-size: 16px;&quot;&gt;П2&lt;/font&gt;" style="text;html=1;strokeColor=none;fillColor=none;align=center;verticalAlign=middle;whiteSpace=wrap;rounded=0;" parent="1" vertex="1">
          <mxGeometry x="400" y="240" width="60" height="30" as="geometry" />
        </mxCell>
        <mxCell id="ISpdHRzA0BJsA2ZzyDUn-148" value="ПК-12&lt;br&gt;Картан" style="whiteSpace=wrap;html=1;aspect=fixed;" parent="1" vertex="1">
          <mxGeometry x="410" y="355.5" width="50" height="50" as="geometry" />
        </mxCell>
        <mxCell id="ISpdHRzA0BJsA2ZzyDUn-149" value="" style="endArrow=classic;startArrow=classic;html=1;rounded=0;exitX=0.25;exitY=1;exitDx=0;exitDy=0;entryX=0.5;entryY=0;entryDx=0;entryDy=0;" parent="1" source="ISpdHRzA0BJsA2ZzyDUn-146" target="ISpdHRzA0BJsA2ZzyDUn-148" edge="1">
          <mxGeometry width="50" height="50" relative="1" as="geometry">
            <mxPoint x="690" y="490" as="sourcePoint" />
            <mxPoint x="740" y="440" as="targetPoint" />
          </mxGeometry>
        </mxCell>
        <mxCell id="ISpdHRzA0BJsA2ZzyDUn-180" value="" style="rounded=0;whiteSpace=wrap;html=1;" parent="1" vertex="1">
          <mxGeometry x="510" y="560.1899999999999" width="150" height="509.81" as="geometry" />
        </mxCell>
        <mxCell id="ISpdHRzA0BJsA2ZzyDUn-182" value="&lt;font style=&quot;font-size: 16px;&quot;&gt;П5&lt;br&gt;&lt;/font&gt;" style="text;html=1;strokeColor=none;fillColor=none;align=center;verticalAlign=middle;whiteSpace=wrap;rounded=0;" parent="1" vertex="1">
          <mxGeometry x="510" y="559" width="60" height="30" as="geometry" />
        </mxCell>
        <mxCell id="ISpdHRzA0BJsA2ZzyDUn-183" value="ПК-35&lt;br&gt;Картан" style="whiteSpace=wrap;html=1;aspect=fixed;" parent="1" vertex="1">
          <mxGeometry x="600" y="589.12" width="50" height="50" as="geometry" />
        </mxCell>
        <mxCell id="ISpdHRzA0BJsA2ZzyDUn-184" value="" style="endArrow=classic;startArrow=classic;html=1;rounded=0;exitX=1;exitY=0.25;exitDx=0;exitDy=0;entryX=0;entryY=0.5;entryDx=0;entryDy=0;" parent="1" source="ISpdHRzA0BJsA2ZzyDUn-185" target="ISpdHRzA0BJsA2ZzyDUn-183" edge="1">
          <mxGeometry width="50" height="50" relative="1" as="geometry">
            <mxPoint x="570" y="614.12" as="sourcePoint" />
            <mxPoint x="850" y="749.12" as="targetPoint" />
          </mxGeometry>
        </mxCell>
        <mxCell id="ISpdHRzA0BJsA2ZzyDUn-185" value="Sharp&lt;br style=&quot;border-color: var(--border-color);&quot;&gt;FX-125" style="whiteSpace=wrap;html=1;aspect=fixed;" parent="1" vertex="1">
          <mxGeometry x="520" y="619.6" width="50" height="50" as="geometry" />
        </mxCell>
        <mxCell id="ISpdHRzA0BJsA2ZzyDUn-186" value="ПК-36&lt;br&gt;Картан" style="whiteSpace=wrap;html=1;aspect=fixed;" parent="1" vertex="1">
          <mxGeometry x="600" y="649.12" width="50" height="50" as="geometry" />
        </mxCell>
        <mxCell id="ISpdHRzA0BJsA2ZzyDUn-187" value="" style="endArrow=classic;startArrow=classic;html=1;rounded=0;exitX=1;exitY=0.75;exitDx=0;exitDy=0;entryX=0;entryY=0.5;entryDx=0;entryDy=0;" parent="1" source="ISpdHRzA0BJsA2ZzyDUn-185" target="ISpdHRzA0BJsA2ZzyDUn-186" edge="1">
          <mxGeometry width="50" height="50" relative="1" as="geometry">
            <mxPoint x="800" y="859.12" as="sourcePoint" />
            <mxPoint x="850" y="809.12" as="targetPoint" />
          </mxGeometry>
        </mxCell>
        <mxCell id="ISpdHRzA0BJsA2ZzyDUn-189" value="ПК-37&lt;br&gt;Картан" style="whiteSpace=wrap;html=1;aspect=fixed;" parent="1" vertex="1">
          <mxGeometry x="600" y="709.12" width="50" height="50" as="geometry" />
        </mxCell>
        <mxCell id="ISpdHRzA0BJsA2ZzyDUn-190" value="" style="endArrow=classic;startArrow=classic;html=1;rounded=0;exitX=1;exitY=0.25;exitDx=0;exitDy=0;entryX=0;entryY=0.5;entryDx=0;entryDy=0;" parent="1" source="ISpdHRzA0BJsA2ZzyDUn-191" target="ISpdHRzA0BJsA2ZzyDUn-189" edge="1">
          <mxGeometry width="50" height="50" relative="1" as="geometry">
            <mxPoint x="570" y="734.12" as="sourcePoint" />
            <mxPoint x="850" y="869.12" as="targetPoint" />
          </mxGeometry>
        </mxCell>
        <mxCell id="ISpdHRzA0BJsA2ZzyDUn-191" value="Sharp&lt;br style=&quot;border-color: var(--border-color);&quot;&gt;FX-125" style="whiteSpace=wrap;html=1;aspect=fixed;" parent="1" vertex="1">
          <mxGeometry x="520" y="739.6" width="50" height="50" as="geometry" />
        </mxCell>
        <mxCell id="ISpdHRzA0BJsA2ZzyDUn-192" value="ПК-38&lt;br&gt;Картан" style="whiteSpace=wrap;html=1;aspect=fixed;" parent="1" vertex="1">
          <mxGeometry x="600" y="769.12" width="50" height="50" as="geometry" />
        </mxCell>
        <mxCell id="ISpdHRzA0BJsA2ZzyDUn-193" value="" style="endArrow=classic;startArrow=classic;html=1;rounded=0;exitX=1;exitY=0.75;exitDx=0;exitDy=0;entryX=0;entryY=0.5;entryDx=0;entryDy=0;" parent="1" source="ISpdHRzA0BJsA2ZzyDUn-191" target="ISpdHRzA0BJsA2ZzyDUn-192" edge="1">
          <mxGeometry width="50" height="50" relative="1" as="geometry">
            <mxPoint x="800" y="979.12" as="sourcePoint" />
            <mxPoint x="850" y="929.12" as="targetPoint" />
          </mxGeometry>
        </mxCell>
        <mxCell id="ISpdHRzA0BJsA2ZzyDUn-194" value="Sharp&lt;br style=&quot;border-color: var(--border-color);&quot;&gt;FX-125" style="whiteSpace=wrap;html=1;aspect=fixed;" parent="1" vertex="1">
          <mxGeometry x="520" y="860" width="50" height="50" as="geometry" />
        </mxCell>
        <mxCell id="ISpdHRzA0BJsA2ZzyDUn-195" value="ПК-40&lt;br&gt;Картан" style="whiteSpace=wrap;html=1;aspect=fixed;" parent="1" vertex="1">
          <mxGeometry x="600" y="889.12" width="50" height="50" as="geometry" />
        </mxCell>
        <mxCell id="ISpdHRzA0BJsA2ZzyDUn-196" value="" style="endArrow=classic;startArrow=classic;html=1;rounded=0;exitX=1;exitY=0.75;exitDx=0;exitDy=0;entryX=0;entryY=0.5;entryDx=0;entryDy=0;" parent="1" source="ISpdHRzA0BJsA2ZzyDUn-194" target="ISpdHRzA0BJsA2ZzyDUn-195" edge="1">
          <mxGeometry width="50" height="50" relative="1" as="geometry">
            <mxPoint x="800" y="1099.12" as="sourcePoint" />
            <mxPoint x="850" y="1049.12" as="targetPoint" />
          </mxGeometry>
        </mxCell>
        <mxCell id="ISpdHRzA0BJsA2ZzyDUn-207" value="ПК-39&lt;br&gt;Картан" style="whiteSpace=wrap;html=1;aspect=fixed;" parent="1" vertex="1">
          <mxGeometry x="600" y="829.12" width="50" height="50" as="geometry" />
        </mxCell>
        <mxCell id="ISpdHRzA0BJsA2ZzyDUn-208" value="" style="endArrow=classic;startArrow=classic;html=1;rounded=0;exitX=1;exitY=0.25;exitDx=0;exitDy=0;entryX=0;entryY=0.5;entryDx=0;entryDy=0;" parent="1" source="ISpdHRzA0BJsA2ZzyDUn-194" target="ISpdHRzA0BJsA2ZzyDUn-207" edge="1">
          <mxGeometry width="50" height="50" relative="1" as="geometry">
            <mxPoint x="570" y="854.12" as="sourcePoint" />
            <mxPoint x="850" y="989.12" as="targetPoint" />
          </mxGeometry>
        </mxCell>
        <mxCell id="ISpdHRzA0BJsA2ZzyDUn-209" style="edgeStyle=orthogonalEdgeStyle;rounded=0;orthogonalLoop=1;jettySize=auto;html=1;exitX=0.5;exitY=1;exitDx=0;exitDy=0;" parent="1" source="ISpdHRzA0BJsA2ZzyDUn-180" target="ISpdHRzA0BJsA2ZzyDUn-180" edge="1">
          <mxGeometry relative="1" as="geometry" />
        </mxCell>
        <mxCell id="ISpdHRzA0BJsA2ZzyDUn-210" value="" style="endArrow=classic;startArrow=classic;html=1;rounded=0;exitX=0;exitY=1;exitDx=0;exitDy=0;entryX=1;entryY=0.75;entryDx=0;entryDy=0;" parent="1" source="ISpdHRzA0BJsA2ZzyDUn-182" target="ISpdHRzA0BJsA2ZzyDUn-140" edge="1">
          <mxGeometry width="50" height="50" relative="1" as="geometry">
            <mxPoint x="630" y="720" as="sourcePoint" />
            <mxPoint x="680" y="670" as="targetPoint" />
          </mxGeometry>
        </mxCell>
        <mxCell id="ISpdHRzA0BJsA2ZzyDUn-211" value="" style="endArrow=classic;startArrow=classic;html=1;rounded=0;exitX=0.75;exitY=0;exitDx=0;exitDy=0;entryX=0.5;entryY=1;entryDx=0;entryDy=0;" parent="1" source="ISpdHRzA0BJsA2ZzyDUn-140" target="ISpdHRzA0BJsA2ZzyDUn-145" edge="1">
          <mxGeometry width="50" height="50" relative="1" as="geometry">
            <mxPoint x="630" y="510" as="sourcePoint" />
            <mxPoint x="680" y="460" as="targetPoint" />
          </mxGeometry>
        </mxCell>
        <mxCell id="ISpdHRzA0BJsA2ZzyDUn-212" style="edgeStyle=orthogonalEdgeStyle;rounded=0;orthogonalLoop=1;jettySize=auto;html=1;exitX=0.5;exitY=1;exitDx=0;exitDy=0;" parent="1" source="ISpdHRzA0BJsA2ZzyDUn-145" target="ISpdHRzA0BJsA2ZzyDUn-145" edge="1">
          <mxGeometry relative="1" as="geometry" />
        </mxCell>
        <mxCell id="2MC6C-4q-mQpbVFWS4ky-1" value="Epson&lt;br&gt;CX-400" style="whiteSpace=wrap;html=1;aspect=fixed;" vertex="1" parent="1">
          <mxGeometry x="240" y="379" width="50" height="50" as="geometry" />
        </mxCell>
        <mxCell id="2MC6C-4q-mQpbVFWS4ky-3" value="" style="rounded=0;whiteSpace=wrap;html=1;" vertex="1" parent="1">
          <mxGeometry x="680" y="459" width="150" height="520" as="geometry" />
        </mxCell>
        <mxCell id="2MC6C-4q-mQpbVFWS4ky-4" value="&lt;font style=&quot;font-size: 16px;&quot;&gt;П4&lt;br&gt;&lt;/font&gt;" style="text;html=1;strokeColor=none;fillColor=none;align=center;verticalAlign=middle;whiteSpace=wrap;rounded=0;" vertex="1" parent="1">
          <mxGeometry x="680" y="459" width="60" height="30" as="geometry" />
        </mxCell>
        <mxCell id="2MC6C-4q-mQpbVFWS4ky-5" value="ПК-27&lt;br&gt;Картан" style="whiteSpace=wrap;html=1;aspect=fixed;" vertex="1" parent="1">
          <mxGeometry x="770" y="498.9999999999999" width="50" height="50" as="geometry" />
        </mxCell>
        <mxCell id="2MC6C-4q-mQpbVFWS4ky-6" value="" style="endArrow=classic;startArrow=classic;html=1;rounded=0;exitX=1;exitY=0.25;exitDx=0;exitDy=0;entryX=0;entryY=0.5;entryDx=0;entryDy=0;" edge="1" parent="1" source="2MC6C-4q-mQpbVFWS4ky-7" target="2MC6C-4q-mQpbVFWS4ky-5">
          <mxGeometry width="50" height="50" relative="1" as="geometry">
            <mxPoint x="740" y="523.9999999999999" as="sourcePoint" />
            <mxPoint x="1020" y="658.9999999999999" as="targetPoint" />
          </mxGeometry>
        </mxCell>
        <mxCell id="2MC6C-4q-mQpbVFWS4ky-7" value="Epson&lt;br style=&quot;border-color: var(--border-color);&quot;&gt;CX-400" style="whiteSpace=wrap;html=1;aspect=fixed;" vertex="1" parent="1">
          <mxGeometry x="690" y="528.9999999999999" width="50" height="50" as="geometry" />
        </mxCell>
        <mxCell id="2MC6C-4q-mQpbVFWS4ky-8" value="ПК-28&lt;br&gt;Картан" style="whiteSpace=wrap;html=1;aspect=fixed;" vertex="1" parent="1">
          <mxGeometry x="770" y="558.9999999999999" width="50" height="50" as="geometry" />
        </mxCell>
        <mxCell id="2MC6C-4q-mQpbVFWS4ky-9" value="" style="endArrow=classic;startArrow=classic;html=1;rounded=0;exitX=1;exitY=0.75;exitDx=0;exitDy=0;entryX=0;entryY=0.5;entryDx=0;entryDy=0;" edge="1" parent="1" source="2MC6C-4q-mQpbVFWS4ky-7" target="2MC6C-4q-mQpbVFWS4ky-8">
          <mxGeometry width="50" height="50" relative="1" as="geometry">
            <mxPoint x="970" y="768.9999999999999" as="sourcePoint" />
            <mxPoint x="1020" y="718.9999999999999" as="targetPoint" />
          </mxGeometry>
        </mxCell>
        <mxCell id="2MC6C-4q-mQpbVFWS4ky-10" value="ПК-29&lt;br&gt;Картан" style="whiteSpace=wrap;html=1;aspect=fixed;" vertex="1" parent="1">
          <mxGeometry x="770" y="618.9999999999999" width="50" height="50" as="geometry" />
        </mxCell>
        <mxCell id="2MC6C-4q-mQpbVFWS4ky-11" value="" style="endArrow=classic;startArrow=classic;html=1;rounded=0;exitX=1;exitY=0.25;exitDx=0;exitDy=0;entryX=0;entryY=0.5;entryDx=0;entryDy=0;" edge="1" parent="1" source="2MC6C-4q-mQpbVFWS4ky-12" target="2MC6C-4q-mQpbVFWS4ky-10">
          <mxGeometry width="50" height="50" relative="1" as="geometry">
            <mxPoint x="740" y="643.9999999999999" as="sourcePoint" />
            <mxPoint x="1020" y="778.9999999999999" as="targetPoint" />
          </mxGeometry>
        </mxCell>
        <mxCell id="2MC6C-4q-mQpbVFWS4ky-12" value="Epson&lt;br style=&quot;border-color: var(--border-color);&quot;&gt;CX-400" style="whiteSpace=wrap;html=1;aspect=fixed;" vertex="1" parent="1">
          <mxGeometry x="690" y="648.9999999999999" width="50" height="50" as="geometry" />
        </mxCell>
        <mxCell id="2MC6C-4q-mQpbVFWS4ky-13" value="ПК-30&lt;br&gt;Картан" style="whiteSpace=wrap;html=1;aspect=fixed;" vertex="1" parent="1">
          <mxGeometry x="770" y="678.9999999999999" width="50" height="50" as="geometry" />
        </mxCell>
        <mxCell id="2MC6C-4q-mQpbVFWS4ky-14" value="" style="endArrow=classic;startArrow=classic;html=1;rounded=0;exitX=1;exitY=0.75;exitDx=0;exitDy=0;entryX=0;entryY=0.5;entryDx=0;entryDy=0;" edge="1" parent="1" source="2MC6C-4q-mQpbVFWS4ky-12" target="2MC6C-4q-mQpbVFWS4ky-13">
          <mxGeometry width="50" height="50" relative="1" as="geometry">
            <mxPoint x="970" y="888.9999999999999" as="sourcePoint" />
            <mxPoint x="1020" y="838.9999999999999" as="targetPoint" />
          </mxGeometry>
        </mxCell>
        <mxCell id="2MC6C-4q-mQpbVFWS4ky-15" value="Epson&lt;br style=&quot;border-color: var(--border-color);&quot;&gt;CX-400" style="whiteSpace=wrap;html=1;aspect=fixed;" vertex="1" parent="1">
          <mxGeometry x="690" y="768.9999999999999" width="50" height="50" as="geometry" />
        </mxCell>
        <mxCell id="2MC6C-4q-mQpbVFWS4ky-16" value="ПК-32&lt;br&gt;Картан" style="whiteSpace=wrap;html=1;aspect=fixed;" vertex="1" parent="1">
          <mxGeometry x="770" y="798.9999999999999" width="50" height="50" as="geometry" />
        </mxCell>
        <mxCell id="2MC6C-4q-mQpbVFWS4ky-17" value="" style="endArrow=classic;startArrow=classic;html=1;rounded=0;exitX=1;exitY=0.75;exitDx=0;exitDy=0;entryX=0;entryY=0.5;entryDx=0;entryDy=0;" edge="1" parent="1" source="2MC6C-4q-mQpbVFWS4ky-15" target="2MC6C-4q-mQpbVFWS4ky-16">
          <mxGeometry width="50" height="50" relative="1" as="geometry">
            <mxPoint x="970" y="1008.9999999999999" as="sourcePoint" />
            <mxPoint x="1020" y="958.9999999999999" as="targetPoint" />
          </mxGeometry>
        </mxCell>
        <mxCell id="2MC6C-4q-mQpbVFWS4ky-18" value="ПК-33&lt;br&gt;Картан" style="whiteSpace=wrap;html=1;aspect=fixed;" vertex="1" parent="1">
          <mxGeometry x="770" y="858.9999999999999" width="50" height="50" as="geometry" />
        </mxCell>
        <mxCell id="2MC6C-4q-mQpbVFWS4ky-19" value="" style="endArrow=classic;startArrow=classic;html=1;rounded=0;exitX=1;exitY=0.25;exitDx=0;exitDy=0;entryX=0;entryY=0.5;entryDx=0;entryDy=0;" edge="1" parent="1" source="2MC6C-4q-mQpbVFWS4ky-20" target="2MC6C-4q-mQpbVFWS4ky-18">
          <mxGeometry width="50" height="50" relative="1" as="geometry">
            <mxPoint x="740" y="883.9999999999999" as="sourcePoint" />
            <mxPoint x="1020" y="1018.9999999999999" as="targetPoint" />
          </mxGeometry>
        </mxCell>
        <mxCell id="2MC6C-4q-mQpbVFWS4ky-20" value="Epson&lt;br style=&quot;border-color: var(--border-color);&quot;&gt;CX-400" style="whiteSpace=wrap;html=1;aspect=fixed;" vertex="1" parent="1">
          <mxGeometry x="690" y="888.9999999999999" width="50" height="50" as="geometry" />
        </mxCell>
        <mxCell id="2MC6C-4q-mQpbVFWS4ky-21" value="ПК-34&lt;br&gt;Картан" style="whiteSpace=wrap;html=1;aspect=fixed;" vertex="1" parent="1">
          <mxGeometry x="770" y="918.9999999999999" width="50" height="50" as="geometry" />
        </mxCell>
        <mxCell id="2MC6C-4q-mQpbVFWS4ky-22" value="" style="endArrow=classic;startArrow=classic;html=1;rounded=0;exitX=1;exitY=0.75;exitDx=0;exitDy=0;entryX=0;entryY=0.5;entryDx=0;entryDy=0;" edge="1" parent="1" source="2MC6C-4q-mQpbVFWS4ky-20" target="2MC6C-4q-mQpbVFWS4ky-21">
          <mxGeometry width="50" height="50" relative="1" as="geometry">
            <mxPoint x="970" y="1129" as="sourcePoint" />
            <mxPoint x="1020" y="1079" as="targetPoint" />
          </mxGeometry>
        </mxCell>
        <mxCell id="2MC6C-4q-mQpbVFWS4ky-23" value="ПК-31&lt;br&gt;Картан" style="whiteSpace=wrap;html=1;aspect=fixed;" vertex="1" parent="1">
          <mxGeometry x="770" y="738.9999999999999" width="50" height="50" as="geometry" />
        </mxCell>
        <mxCell id="2MC6C-4q-mQpbVFWS4ky-24" value="" style="endArrow=classic;startArrow=classic;html=1;rounded=0;exitX=1;exitY=0.25;exitDx=0;exitDy=0;entryX=0;entryY=0.5;entryDx=0;entryDy=0;" edge="1" parent="1" source="2MC6C-4q-mQpbVFWS4ky-15" target="2MC6C-4q-mQpbVFWS4ky-23">
          <mxGeometry width="50" height="50" relative="1" as="geometry">
            <mxPoint x="740" y="763.9999999999999" as="sourcePoint" />
            <mxPoint x="1020" y="898.9999999999999" as="targetPoint" />
          </mxGeometry>
        </mxCell>
        <mxCell id="2MC6C-4q-mQpbVFWS4ky-25" style="edgeStyle=orthogonalEdgeStyle;rounded=0;orthogonalLoop=1;jettySize=auto;html=1;exitX=0.5;exitY=1;exitDx=0;exitDy=0;" edge="1" parent="1" source="2MC6C-4q-mQpbVFWS4ky-3" target="2MC6C-4q-mQpbVFWS4ky-3">
          <mxGeometry relative="1" as="geometry" />
        </mxCell>
        <mxCell id="2MC6C-4q-mQpbVFWS4ky-26" value="Sharp&lt;br style=&quot;border-color: var(--border-color);&quot;&gt;FX-125" style="whiteSpace=wrap;html=1;aspect=fixed;" vertex="1" parent="1">
          <mxGeometry x="520" y="980.48" width="50" height="50" as="geometry" />
        </mxCell>
        <mxCell id="2MC6C-4q-mQpbVFWS4ky-27" value="ПК-42&lt;br&gt;Картан" style="whiteSpace=wrap;html=1;aspect=fixed;" vertex="1" parent="1">
          <mxGeometry x="600" y="1009.6" width="50" height="50" as="geometry" />
        </mxCell>
        <mxCell id="2MC6C-4q-mQpbVFWS4ky-28" value="" style="endArrow=classic;startArrow=classic;html=1;rounded=0;exitX=1;exitY=0.75;exitDx=0;exitDy=0;entryX=0;entryY=0.5;entryDx=0;entryDy=0;" edge="1" parent="1" source="2MC6C-4q-mQpbVFWS4ky-26" target="2MC6C-4q-mQpbVFWS4ky-27">
          <mxGeometry width="50" height="50" relative="1" as="geometry">
            <mxPoint x="800" y="1219.6" as="sourcePoint" />
            <mxPoint x="850" y="1169.6" as="targetPoint" />
          </mxGeometry>
        </mxCell>
        <mxCell id="2MC6C-4q-mQpbVFWS4ky-29" value="ПК-41&lt;br&gt;Картан" style="whiteSpace=wrap;html=1;aspect=fixed;" vertex="1" parent="1">
          <mxGeometry x="600" y="949.6" width="50" height="50" as="geometry" />
        </mxCell>
        <mxCell id="2MC6C-4q-mQpbVFWS4ky-30" value="" style="endArrow=classic;startArrow=classic;html=1;rounded=0;exitX=1;exitY=0.25;exitDx=0;exitDy=0;entryX=0;entryY=0.5;entryDx=0;entryDy=0;" edge="1" parent="1" source="2MC6C-4q-mQpbVFWS4ky-26" target="2MC6C-4q-mQpbVFWS4ky-29">
          <mxGeometry width="50" height="50" relative="1" as="geometry">
            <mxPoint x="570" y="974.6" as="sourcePoint" />
            <mxPoint x="850" y="1109.6000000000001" as="targetPoint" />
          </mxGeometry>
        </mxCell>
        <mxCell id="2MC6C-4q-mQpbVFWS4ky-31" value="ПК-13&lt;br&gt;Картан" style="whiteSpace=wrap;html=1;aspect=fixed;" vertex="1" parent="1">
          <mxGeometry x="470" y="355.5" width="50" height="50" as="geometry" />
        </mxCell>
        <mxCell id="2MC6C-4q-mQpbVFWS4ky-32" value="" style="endArrow=classic;startArrow=classic;html=1;rounded=0;exitX=0.5;exitY=0;exitDx=0;exitDy=0;entryX=0.75;entryY=1;entryDx=0;entryDy=0;" edge="1" parent="1" source="2MC6C-4q-mQpbVFWS4ky-31" target="ISpdHRzA0BJsA2ZzyDUn-146">
          <mxGeometry width="50" height="50" relative="1" as="geometry">
            <mxPoint x="400" y="350.5" as="sourcePoint" />
            <mxPoint x="450" y="300.5" as="targetPoint" />
          </mxGeometry>
        </mxCell>
        <mxCell id="2MC6C-4q-mQpbVFWS4ky-33" value="Epson&lt;br&gt;CX-400" style="whiteSpace=wrap;html=1;aspect=fixed;" vertex="1" parent="1">
          <mxGeometry x="560" y="270" width="50" height="50" as="geometry" />
        </mxCell>
        <mxCell id="2MC6C-4q-mQpbVFWS4ky-34" value="ПК-14&lt;br&gt;Картан" style="whiteSpace=wrap;html=1;aspect=fixed;" vertex="1" parent="1">
          <mxGeometry x="530" y="355" width="50" height="50" as="geometry" />
        </mxCell>
        <mxCell id="2MC6C-4q-mQpbVFWS4ky-35" value="" style="endArrow=classic;startArrow=classic;html=1;rounded=0;exitX=0.25;exitY=1;exitDx=0;exitDy=0;entryX=0.5;entryY=0;entryDx=0;entryDy=0;" edge="1" parent="1" source="2MC6C-4q-mQpbVFWS4ky-33" target="2MC6C-4q-mQpbVFWS4ky-34">
          <mxGeometry width="50" height="50" relative="1" as="geometry">
            <mxPoint x="810" y="489.5" as="sourcePoint" />
            <mxPoint x="860" y="439.5" as="targetPoint" />
          </mxGeometry>
        </mxCell>
        <mxCell id="2MC6C-4q-mQpbVFWS4ky-36" value="ПК-15&lt;br&gt;Картан" style="whiteSpace=wrap;html=1;aspect=fixed;" vertex="1" parent="1">
          <mxGeometry x="590" y="355" width="50" height="50" as="geometry" />
        </mxCell>
        <mxCell id="2MC6C-4q-mQpbVFWS4ky-37" value="" style="endArrow=classic;startArrow=classic;html=1;rounded=0;exitX=0.5;exitY=0;exitDx=0;exitDy=0;entryX=0.75;entryY=1;entryDx=0;entryDy=0;" edge="1" parent="1" source="2MC6C-4q-mQpbVFWS4ky-36" target="2MC6C-4q-mQpbVFWS4ky-33">
          <mxGeometry width="50" height="50" relative="1" as="geometry">
            <mxPoint x="520" y="350" as="sourcePoint" />
            <mxPoint x="570" y="300" as="targetPoint" />
          </mxGeometry>
        </mxCell>
        <mxCell id="2MC6C-4q-mQpbVFWS4ky-38" value="Epson&lt;br&gt;CX-400" style="whiteSpace=wrap;html=1;aspect=fixed;" vertex="1" parent="1">
          <mxGeometry x="680" y="270" width="50" height="50" as="geometry" />
        </mxCell>
        <mxCell id="2MC6C-4q-mQpbVFWS4ky-39" value="ПК-16&lt;br&gt;Картан" style="whiteSpace=wrap;html=1;aspect=fixed;" vertex="1" parent="1">
          <mxGeometry x="650" y="355" width="50" height="50" as="geometry" />
        </mxCell>
        <mxCell id="2MC6C-4q-mQpbVFWS4ky-40" value="" style="endArrow=classic;startArrow=classic;html=1;rounded=0;exitX=0.25;exitY=1;exitDx=0;exitDy=0;entryX=0.5;entryY=0;entryDx=0;entryDy=0;" edge="1" parent="1" source="2MC6C-4q-mQpbVFWS4ky-38" target="2MC6C-4q-mQpbVFWS4ky-39">
          <mxGeometry width="50" height="50" relative="1" as="geometry">
            <mxPoint x="930" y="489.5" as="sourcePoint" />
            <mxPoint x="980" y="439.5" as="targetPoint" />
          </mxGeometry>
        </mxCell>
        <mxCell id="2MC6C-4q-mQpbVFWS4ky-41" value="ПК-17&lt;br&gt;Картан" style="whiteSpace=wrap;html=1;aspect=fixed;" vertex="1" parent="1">
          <mxGeometry x="710" y="355" width="50" height="50" as="geometry" />
        </mxCell>
        <mxCell id="2MC6C-4q-mQpbVFWS4ky-42" value="" style="endArrow=classic;startArrow=classic;html=1;rounded=0;exitX=0.5;exitY=0;exitDx=0;exitDy=0;entryX=0.75;entryY=1;entryDx=0;entryDy=0;" edge="1" parent="1" source="2MC6C-4q-mQpbVFWS4ky-41" target="2MC6C-4q-mQpbVFWS4ky-38">
          <mxGeometry width="50" height="50" relative="1" as="geometry">
            <mxPoint x="640" y="350" as="sourcePoint" />
            <mxPoint x="690" y="300" as="targetPoint" />
          </mxGeometry>
        </mxCell>
        <mxCell id="2MC6C-4q-mQpbVFWS4ky-43" value="Epson&lt;br&gt;CX-400" style="whiteSpace=wrap;html=1;aspect=fixed;" vertex="1" parent="1">
          <mxGeometry x="770" y="270" width="50" height="50" as="geometry" />
        </mxCell>
        <mxCell id="2MC6C-4q-mQpbVFWS4ky-44" value="ПК-18&lt;br&gt;Картан" style="whiteSpace=wrap;html=1;aspect=fixed;" vertex="1" parent="1">
          <mxGeometry x="770" y="355" width="50" height="50" as="geometry" />
        </mxCell>
        <mxCell id="2MC6C-4q-mQpbVFWS4ky-45" value="" style="endArrow=classic;startArrow=classic;html=1;rounded=0;exitX=0.5;exitY=0;exitDx=0;exitDy=0;entryX=0.5;entryY=1;entryDx=0;entryDy=0;" edge="1" parent="1" source="2MC6C-4q-mQpbVFWS4ky-44" target="2MC6C-4q-mQpbVFWS4ky-43">
          <mxGeometry width="50" height="50" relative="1" as="geometry">
            <mxPoint x="700" y="350" as="sourcePoint" />
            <mxPoint x="750" y="300" as="targetPoint" />
          </mxGeometry>
        </mxCell>
      </root>
    </mxGraphModel>
  </diagram>
</mxfile>
